HIERARCHY
ROOT pelvis
{
  OFFSET 0 100 0
  CHANNELS 6 Xposition Yposition Zposition Zrotation Xrotation Yrotation
  JOINT pelvis_right_femur
  {
    OFFSET -10.78128 -3.44521 -0.5502486
    CHANNELS 3 Zrotation Xrotation Yrotation
    JOINT right_femur_tibia
    {
      OFFSET -0.8047443 -44.0398 -0.1307829
      CHANNELS 3 Zrotation Xrotation Yrotation
      JOINT right_tibia_foot
      {
        OFFSET 3.006224 -47.83518 -5
        CHANNELS 3 Zrotation Xrotation Yrotation
        End Site
        {
          OFFSET 0 -5 15
        }
      }
    }
  }
  JOINT pelvis_left_femur
  {
    OFFSET 10.78128 -3.44521 -0.5502486
    CHANNELS 3 Zrotation Xrotation Yrotation
    JOINT left_femur_tibia
    {
      OFFSET 0.8047443 -44.0398 -0.1307829
      CHANNELS 3 Zrotation Xrotation Yrotation
      JOINT left_tibia_foot
      {
        OFFSET -4.370144 -48.10324 -4.275266
        CHANNELS 3 Zrotation Xrotation Yrotation
        End Site
        {
          OFFSET 0 -5 15
        }
      }
    }
  }
  JOINT pelvis_spine1
  {
    OFFSET 0 6.468898 -3.129235
    CHANNELS 3 Zrotation Xrotation Yrotation
    JOINT spine1
    {
      OFFSET 0 23.15396 4.99043
      CHANNELS 3 Zrotation Xrotation Yrotation
      JOINT spine2
      {
        OFFSET 0 20.79997 -5.064912
        CHANNELS 3 Zrotation Xrotation Yrotation
        JOINT neck
        {
          OFFSET 0 14.38658 9.616178
          CHANNELS 3 Zrotation Xrotation Yrotation
          End Site
          {
            OFFSET 0 20 0
          }
        }
      }
      JOINT right_manubrium
      {
        OFFSET -5.722621 16.35077 3.967754
        CHANNELS 3 Zrotation Xrotation Yrotation
        JOINT right_clavicle
        {
          OFFSET -13.16364 1.694482 -4.693211
          CHANNELS 3 Zrotation Xrotation Yrotation
          JOINT right_humerus
          {
            OFFSET -28.5034 -0.3100689 -2.792744
            CHANNELS 3 Zrotation Xrotation Yrotation
            JOINT right_radius
            {
              OFFSET -25.15693 0.02248979 -1.271978
              CHANNELS 3 Zrotation Xrotation Yrotation
              End Site
              {
                OFFSET -15 0 0
              }
            }
          }
        }
      }
      JOINT left_manubrium
      {
        OFFSET 5.722621 16.35077 3.967754
        CHANNELS 3 Zrotation Xrotation Yrotation
        JOINT left_clavicle
        {
          OFFSET 13.16364 1.694482 -4.693211
          CHANNELS 3 Zrotation Xrotation Yrotation
          JOINT left_humerus
          {
            OFFSET 29.39168 -1.063119 -2.237045
            CHANNELS 3 Zrotation Xrotation Yrotation
            JOINT left_radius
            {
              OFFSET 24.59957 -0.9528479 0.9047498
              CHANNELS 3 Zrotation Xrotation Yrotation
              End Site
              {
                OFFSET 15 -0 -0
              }
            }
          }
        }
      }
    }
  }
}
MOTION
Frames: 23
Frame Time: 0.0416666666667
886.8614 102.9544 2973.785 1.792961 -2.417643 35.0703 1.366929 -26.38943 0.7286272 -0 22.98116 -0 -2.58983 0.7854942 -5.559216 -4.487422 12.82016 -8.395566 -0 10.08849 -0 -2.262451 -19.20603 12.26604 -2.441632 0.6077283 2.185075 2.051936 9.936723 -8.48633 0.9758983 21.06956 6.870108 2.801136 -20.33417 7.49579 3.188704 -15.90189 11.04849 88.96009 28.4196 -20.24337 -0 0 9.259387 -19.36349 12.00032 11.19389 6.192693 -22.5014 -4.734463 -82.61469 21.0159 8.313159 0 0 -25.15614 5.364413 8.279775 7.207262
890.3184 101.3634 2978.849 1.760093 -2.113465 35.62848 1.716343 -29.35205 -0.2121447 -0 12.40229 -0 -2.707006 -1.617111 -5.868546 -4.528198 15.94291 -7.901028 -0 11.83203 -0 -2.726448 -20.29318 12.21013 -2.170004 0.2186603 2.114417 2.21798 9.323528 -8.71926 1.248772 21.39104 6.569934 2.538443 -19.83298 7.615279 1.94525 -15.06801 10.55458 90.34104 26.82421 -22.3766 -0 0 7.445029 -18.90843 11.56074 9.920577 7.127978 -23.60053 -4.561874 -81.22493 20.53985 4.808951 0 0 -29.03002 6.392006 8.865098 5.569681
893.802 99.61915 2984.245 2.535765 -2.916776 35.9843 2.018515 -28.70978 -1.294185 -0 7.33673 -0 -3.775673 -1.753038 -6.006209 -4.6657 17.91389 -7.636935 -0 16.0897 -0 -2.889934 -20.08161 12.81402 -1.754199 -0.3286063 2.038325 2.005614 9.286166 -8.474046 1.694083 22.18154 6.03799 2.186337 -19.23388 7.730914 0.06342565 -14.81985 10.16464 92.24543 23.53127 -23.53827 -0 0 5.823177 -19.18207 10.78502 8.965962 7.50827 -24.34116 -4.875786 -81.01324 20.12484 3.254 0 0 -30.25025 7.363789 10.33173 4.07824
897.296 98.2701 2989.87 3.314119 -3.942955 36.14664 2.707785 -26.50037 -1.383711 -0 6.520907 -0 -4.788915 -1.295888 -6.205472 -4.644727 18.17159 -7.467554 -0 23.67519 -0 -3.451336 -18.52368 13.17683 -1.313375 -0.6176782 2.103984 1.802252 9.574459 -8.161345 2.04285 22.81945 5.565238 1.974671 -18.79762 7.703233 -0.9914161 -14.66951 10.08328 93.5277 21.30332 -24.05058 -0 0 4.743937 -19.2739 10.3693 8.260274 7.29143 -24.52109 -5.227834 -81.42104 20.15443 3.199224 0 0 -29.81043 7.581936 11.34074 3.686004
900.7443 97.61364 2995.615 3.811688 -4.811217 36.09709 3.758585 -23.64988 -0.4952712 -0 7.740798 -0 -5.425165 -1.152526 -6.479686 -4.419815 16.85928 -7.271869 -0 33.96779 -0 -4.481493 -15.97402 13.19049 -0.8836313 -0.6266976 2.374553 1.717658 9.987974 -7.905763 2.241577 23.15954 5.218242 1.928882 -18.54193 7.527469 -1.051296 -14.45052 10.27088 93.99369 20.65884 -24.26732 -0 0 4.184092 -18.95337 10.38458 7.684556 6.693204 -24.25571 -5.413288 -82.11366 20.54464 4.040615 0 0 -28.62243 7.086257 11.61136 4.295525
904.1114 97.7224 3001.403 4.096099 -5.548947 35.82355 4.946582 -20.13407 0.8576785 -0 9.623188 -0 -5.800048 -1.408783 -6.707186 -4.001034 14.23163 -6.983936 -0 45.34079 -0 -5.706357 -12.86256 13.12062 -0.4469453 -0.4917867 2.838118 1.682576 10.47538 -7.648666 2.346601 23.28642 4.934205 1.970117 -18.40116 7.251981 -0.5904854 -14.32508 10.61478 93.88149 20.8913 -24.18055 -0 0 4.164318 -18.47726 10.65544 7.261048 5.910663 -23.72576 -5.469605 -83.06821 21.06224 5.591095 0 0 -27.00705 6.189489 11.42904 5.457999
907.4025 98.52785 3007.176 4.200321 -6.15502 35.31978 6.066724 -15.79787 2.305298 -0 11.40419 -0 -5.958451 -2.126256 -6.750583 -3.35385 10.23801 -6.541753 -0 55.88968 -0 -6.87398 -9.560441 13.15041 -0.01109066 -0.2966409 3.499479 1.632567 11.01221 -7.332694 2.381288 23.22311 4.678172 2.040998 -18.3497 6.905746 0.0728733 -14.51781 11.04947 93.24549 21.53936 -23.5862 -0 0 4.909577 -18.11073 11.09254 7.124864 5.072682 -23.01845 -5.426344 -84.33437 21.51724 7.909629 0 0 -25.04953 5.083908 10.96743 6.901361
910.6673 99.81115 3012.872 4.061968 -6.490973 34.59319 6.924548 -10.5889 3.605844 -0 12.44809 -0 -5.831165 -3.505958 -6.440249 -2.407653 4.606391 -5.864589 -0 63.22014 -0 -7.706654 -6.476808 13.36423 0.3669967 -0.08561316 4.386882 1.535597 11.54851 -6.932923 2.319407 22.91332 4.467749 2.113508 -18.41989 6.50647 0.8089649 -15.26535 11.54408 91.92313 22.50961 -22.17747 -0 0 6.784748 -18.07142 11.68241 7.493676 4.301308 -22.1722 -5.249324 -85.93731 21.70928 11.11881 0 0 -22.81779 3.926051 10.25698 8.419518
913.9974 101.1664 3018.427 3.611197 -6.339568 33.6891 7.309921 -4.663508 4.547799 -0 12.09755 -0 -5.306036 -5.828686 -5.61623 -1.099765 -2.777253 -4.871331 -0 64.48119 -0 -7.878993 -4.139395 13.79472 0.5781544 0.1015506 5.494811 1.381155 11.96947 -6.451552 2.121811 22.31015 4.34164 2.15915 -18.6392 6.086868 1.540377 -16.73855 12.0462 89.69595 23.83072 -19.63235 -0 0 10.08549 -18.53301 12.39363 8.587349 3.749165 -21.22593 -4.864568 -87.77989 21.44947 15.14498 0 0 -20.44976 2.910516 9.314809 9.758518
917.4882 102.0565 3023.8 2.919465 -5.612362 32.70502 7.077776 1.531406 4.979974 -0 10.00238 -0 -4.343124 -9.217775 -4.288065 0.5421021 -11.30748 -3.559476 -0 57.93675 -0 -7.22772 -3.023883 14.45019 0.513351 0.2308725 6.702038 1.173874 12.1006 -5.910817 1.804151 21.50902 4.302342 2.130997 -18.92673 5.708815 2.139784 -18.83969 12.43807 86.58754 25.34671 -15.8833 -0 0 14.6365 -19.52107 13.0859 10.41124 3.548638 -20.22719 -4.23352 -89.58525 20.75773 19.45149 0 0 -18.14665 2.176272 8.265018 10.70913
921.1721 102.0404 3028.983 2.250194 -4.571087 31.74971 6.317753 7.301305 4.93102 -0 6.692262 -0 -3.091742 -13.2277 -2.753956 2.30202 -19.47374 -2.105276 -0 45.40466 -0 -6.042463 -3.162556 15.29823 0.1834691 0.3004215 7.772849 0.9280159 11.84262 -5.345473 1.475444 20.77633 4.291458 1.997385 -19.08885 5.441088 2.43132 -21.08944 12.58148 83.16627 26.57147 -11.49647 -0 0 19.53749 -20.81083 13.53454 12.56174 3.692104 -19.23477 -3.458715 -91.04169 19.98864 23.16602 0 0 -16.10417 1.66291 7.341016 11.30024
925.0154 101.026 3034.017 1.839925 -3.664996 30.87456 5.38397 11.94218 4.629881 -0 3.498692 -0 -1.818184 -16.76067 -1.403106 3.823712 -25.7774 -0.7971607 -0 31.95308 -0 -4.918789 -4.029634 16.18381 -0.2359837 0.3386689 8.54058 0.6596533 11.34907 -4.804142 1.253782 20.31147 4.266983 1.81253 -19.02589 5.305352 2.361586 -22.92861 12.47732 80.32266 27.06193 -7.559938 -0 0 23.66219 -22.08618 13.62935 14.45083 4.009517 -18.35202 -2.771489 -92.03859 19.47805 25.72879 0 0 -14.49813 1.219062 6.684925 11.73305
928.9925 99.26376 3038.996 1.69242 -3.109628 30.07608 4.626306 15.08099 4.339046 -0 1.628597 -0 -0.6554539 -18.76453 -0.3935316 4.854474 -29.81506 0.1941465 -0 21.91985 -0 -4.235547 -5.009437 16.8837 -0.5558777 0.3635618 9.050024 0.3763026 10.93048 -4.334604 1.159748 20.05263 4.269209 1.698497 -18.85018 5.264869 2.103361 -24.13504 12.30315 78.54028 26.8449 -4.863376 -0 0 26.48716 -23.21382 13.46187 15.77485 4.321885 -17.69432 -2.34772 -92.66359 19.17575 27.24344 0 0 -13.46731 0.8210067 6.203202 12.12126
933.1095 97.11923 3044.038 1.726299 -2.879467 29.34502 4.134259 16.83295 4.220407 -0 1.667864 -0 0.4475325 -18.96887 0.2878512 5.316009 -31.98848 0.80374 -0 16.4779 -0 -4.045577 -5.838061 17.3224 -0.7219195 0.3776058 9.421573 0.06773008 10.74686 -3.940252 1.162263 19.86945 4.343431 1.724174 -18.6704 5.282536 1.854679 -24.77415 12.20016 77.72234 26.17726 -3.470797 -0 0 28.15229 -24.20051 13.14973 16.54287 4.549162 -17.25455 -2.203247 -93.06168 18.95769 28.07531 0 0 -12.96474 0.4496144 5.736231 12.5488
937.3669 94.90736 3049.228 1.951838 -2.949389 28.69016 3.77282 17.60472 4.350522 -0 3.842857 -0 1.579357 -17.81248 0.6044207 5.159944 -32.68783 0.9035572 -0 14.71636 -0 -4.298554 -6.563709 17.61307 -0.7956903 0.386688 9.69523 -0.2857785 10.72716 -3.581446 1.257971 19.76133 4.467511 1.856486 -18.43191 5.356778 1.672351 -24.93873 12.14813 77.60196 25.20615 -3.066068 -0 0 28.99277 -25.01667 12.72337 16.82104 4.676979 -16.88403 -2.261478 -93.35813 18.95159 28.44404 0 0 -12.73058 -0.05887806 5.23296 13.20637
941.737 92.86622 3054.593 2.435116 -3.34017 28.14086 3.35095 17.78656 4.761068 -0 8.250235 -0 2.787031 -15.94907 0.4609138 4.342233 -32.06452 0.3432538 -0 15.28196 -0 -4.916616 -7.314656 17.91657 -0.8729944 0.3942582 9.83991 -0.6921729 10.71962 -3.226925 1.461727 19.80965 4.58099 2.013935 -18.00444 5.502085 1.533893 -24.6711 12.05079 77.97243 24.00362 -3.316413 -0 0 29.25989 -25.57751 12.18246 16.64256 4.706995 -16.41844 -2.433951 -93.61386 19.3963 28.39741 0 0 -12.46947 -0.8848426 4.72532 14.2745
946.1628 91.1817 3060.105 3.209732 -4.052667 27.74279 2.737457 17.58682 5.439339 -0 14.79888 -0 4.052524 -13.93085 -0.2128894 2.912042 -30.14763 -0.9032698 -0 17.11545 -0 -5.771877 -8.155486 18.32421 -1.031583 0.3940702 9.808424 -1.131617 10.61747 -2.890021 1.771688 20.07875 4.63095 2.120933 -17.30348 5.722943 1.430052 -23.99593 11.83657 78.69286 22.69311 -3.991138 -0 0 29.06749 -25.79753 11.56223 16.04194 4.641685 -15.78314 -2.650787 -93.80115 20.42267 27.90314 0 0 -12.0058 -2.069752 4.258572 15.77282
950.5652 89.99774 3065.696 4.231842 -5.018653 27.54535 1.908619 17.01732 6.305358 -0 23.02141 -0 5.274636 -12.1224 -1.402107 1.069571 -26.99321 -2.66184 -0 19.54793 -0 -6.686942 -9.053014 18.81943 -1.309607 0.3769225 9.567267 -1.552973 10.39341 -2.628857 2.154257 20.57166 4.593295 2.131731 -16.34521 6.003778 1.388204 -22.95696 11.49402 79.65122 21.48569 -4.955738 -0 0 28.42142 -25.63188 10.94512 15.09646 4.489556 -15.0249 -2.863839 -93.80933 21.96469 26.90549 0 0 -11.33825 -3.472041 3.870817 17.5159
954.8578 89.40292 3071.278 5.366655 -6.07813 27.57782 0.9564354 15.95385 7.196233 -0 31.95862 -0 6.275681 -10.68466 -2.968816 -0.8738673 -22.81853 -4.598216 -0 22.15882 -0 -7.457128 -9.902949 19.29193 -1.700227 0.339495 9.11363 -1.882988 10.08948 -2.523306 2.543232 21.22004 4.484332 2.042389 -15.26121 6.310396 1.4568 -21.64421 11.07014 80.73381 20.65036 -6.130625 -0 0 27.28124 -25.10172 10.43792 13.94773 4.276488 -14.29664 -3.042327 -93.48232 23.75411 25.36838 0 0 -10.63049 -4.793922 3.605147 19.1433
958.9696 89.41066 3076.769 6.405536 -6.997091 27.82612 0.05683669 14.22906 7.891459 -0 40.307 -0 6.852095 -9.560575 -4.653879 -2.617144 -18.05844 -6.350838 -0 24.62273 -0 -7.882746 -10.58786 19.58724 -2.157805 0.2852063 8.485497 -2.047841 9.792352 -2.64131 2.850724 21.89657 4.365162 1.895335 -14.28021 6.599018 1.679679 -20.20442 10.65268 81.8201 20.44348 -7.455305 -0 0 25.63141 -24.30111 10.13465 12.79019 4.049851 -13.80692 -3.1712 -92.69497 25.37687 23.3352 0 0 -10.14638 -5.659746 3.519815 20.21189
962.8682 89.95388 3082.12 7.130766 -7.548527 28.23561 -0.6110524 11.73635 8.191997 -0 46.86393 -0 6.859903 -8.513939 -6.149276 -3.981521 -13.26207 -7.673137 -0 26.62273 -0 -7.818173 -11.04908 19.5784 -2.615999 0.2195129 7.752643 -2.002466 9.596459 -3.006368 2.995775 22.45764 4.322063 1.763041 -13.65478 6.831715 2.066231 -18.81959 10.33643 82.81542 20.99965 -8.870268 -0 0 23.53979 -23.37708 10.07929 11.81997 3.86654 -13.73564 -3.255195 -91.45081 26.41589 20.9853 0 0 -10.12641 -5.754919 3.668736 20.36017
966.5681 90.89995 3087.319 7.412076 -7.625302 28.74975 -0.9582156 8.503351 8.008932 -0 51.00187 -0 6.284176 -7.273845 -7.219679 -4.933072 -8.868037 -8.500499 -0 27.82679 -0 -7.232737 -11.34025 19.22534 -3.011825 0.1492532 6.984861 -1.752649 9.559778 -3.582467 2.94356 22.80477 4.419397 1.708052 -13.54652 6.992729 2.566258 -17.65559 10.18044 83.69556 22.22648 -10.31329 -0 0 21.17775 -22.48587 10.24664 11.16767 3.770532 -14.14825 -3.322782 -89.92421 26.64618 18.61666 0 0 -10.66057 -4.982478 4.058633 19.48779
970.1189 92.07601 3092.382 7.265848 -7.295995 29.34801 -1.017078 4.685939 7.388574 -0 52.77608 -0 5.240365 -5.715203 -7.793583 -5.5238 -5.033786 -8.91803 -0 27.93351 -0 -6.247446 -11.61959 18.58099 -3.301638 0.08881917 6.220227 -1.352377 9.67541 -4.288009 2.726343 22.92339 4.658127 1.746493 -13.94572 7.093357 3.070961 -16.81022 10.18186 84.51081 23.79386 -11.7278 -0 0 18.78342 -21.74613 10.55689 10.85912 3.777973 -14.96836 -3.420534 -88.37651 26.14865 16.51627 0 0 -11.65956 -3.531255 4.632584 17.82369
